<?xml version="1.0" encoding="utf-8"?>
<!-- Generator: Adobe Illustrator 23.0.1, SVG Export Plug-In . SVG Version: 6.00 Build 0)  -->
<svg version="1.1" xmlns="http://www.w3.org/2000/svg" xmlns:xlink="http://www.w3.org/1999/xlink" x="0px" y="0px"
	 viewBox="0 0 300 300" style="enable-background:new 0 0 300 300;" xml:space="preserve">
<style type="text/css">
	.st0{enable-background:new    ;}
	.st1{fill:#FEFEFC;}
	.st2{fill-rule:evenodd;clip-rule:evenodd;fill:#A5E03B;}
</style>
<g id="Прямоугольник_x2C__скругл._углы_2_копия_1_" class="st0">
	<g id="Прямоугольник_x2C__скругл._углы_2_копия">
		<g>
			<path class="st1" d="M158,134h-17c-5.52,0-10,4.48-10,10v12c0,5.52,4.48,10,10,10h17c5.52,0,10-4.48,10-10v-12
				C168,138.48,163.52,134,158,134z"/>
		</g>
	</g>
</g>
<g id="Эллипс_2_1_" class="st0">
	<g id="Эллипс_2">
		<g>
			<path class="st2" d="M149.5,126.99c-12.43,0-22.5,10.07-22.5,22.5c0,4.63,1.4,8.93,3.8,12.51l-2.75,9.18l0,0h0l0,0l0,0l9.28-2.78
				c3.51,2.26,7.69,3.58,12.18,3.58c12.43,0,22.5-10.07,22.5-22.5C172,137.06,161.93,126.99,149.5,126.99z M162.14,158.52
				c-0.32,0.62-0.74,1.2-1.26,1.73c-1.69,1.69-4.04,2.31-6.22,1.87c-0.1-0.02-0.21-0.04-0.32-0.07c-3.33-0.89-7.06-3.1-10.35-6.39
				c0,0,0,0,0,0c0,0,0,0,0,0c-3.29-3.29-5.5-7.01-6.39-10.34c-0.03-0.11-0.05-0.22-0.07-0.32c-0.44-2.18,0.18-4.53,1.87-6.22
				c0.52-0.52,1.1-0.94,1.73-1.26c0,0,1.05-0.47,2.85,0.34c0,0,2.43,2.15,2.36,6.48c-0.76,2.13-2.93,3.07-2.93,3.07
				c1.05,1.67,2.37,3.34,3.94,4.9c1.57,1.56,3.23,2.89,4.91,3.94c0,0,0.94-2.16,3.07-2.93c4.34-0.07,6.48,2.35,6.48,2.35
				C162.61,157.47,162.14,158.52,162.14,158.52z"/>
		</g>
	</g>
</g>
</svg>
