<?xml version="1.0" encoding="utf-8"?>
<!-- Generator: Adobe Illustrator 23.0.1, SVG Export Plug-In . SVG Version: 6.00 Build 0)  -->
<svg version="1.1" xmlns="http://www.w3.org/2000/svg" xmlns:xlink="http://www.w3.org/1999/xlink" x="0px" y="0px"
	 viewBox="0 0 300 300" style="enable-background:new 0 0 300 300;" xml:space="preserve">
<style type="text/css">
	.st0{enable-background:new    ;}
	.st1{fill:#FEFEFC;}
	.st2{fill-rule:evenodd;clip-rule:evenodd;fill:#7B56AD;}
</style>
<g id="Прямоугольник_x2C__скругл._углы_2_1_" class="st0">
	<g id="Прямоугольник_x2C__скругл._углы_2">
		<g>
			<path class="st1" d="M157,131h-17c-5.52,0-10,4.48-10,10v12c0,5.52,4.48,10,10,10h17c5.52,0,10-4.48,10-10v-12
				C167,135.48,162.52,131,157,131z"/>
		</g>
	</g>
</g>
<g id="Фигура_1_копия_4_1_" class="st0">
	<g id="Фигура_1_копия_4">
		<g>
			<path class="st2" d="M155.86,124h-13.51c-9.03,0-16.35,7.35-16.35,16.41v9.73c0,6.85,4.18,12.71,10.12,15.17
				c0,2.72,0,8.45,0,8.82c0,0.48,0.39,0.87,0.87,0.87c0.26,0,0.49-0.11,0.65-0.29l0,0l0.01-0.01c0.01-0.01,0.02-0.03,0.03-0.04
				l6.6-8.11h11.58c9.03,0,16.35-7.35,16.35-16.41v-9.73C172.21,131.35,164.89,124,155.86,124z M160.21,155.31
				c0,0-0.36,0.57-0.77,1.13c-0.44,0.62-0.94,1.24-0.94,1.24l0,0c-0.09,0.12-0.19,0.24-0.3,0.35c-0.87,0.87-2.09,1.16-3.19,0.88
				c-3.62-0.81-8.22-3.56-12.37-7.73l0.01-0.01c0,0,0,0,0,0l-0.01,0.01c-4.15-4.17-6.9-8.78-7.71-12.41
				c-0.28-1.11,0.01-2.34,0.87-3.2c0.11-0.11,0.23-0.21,0.35-0.3l0,0c0,0,0.62-0.5,1.24-0.94c0.57-0.41,1.13-0.77,1.13-0.77l0,0
				c0.75-0.56,1.81-0.5,2.49,0.18c0.06,0.06,0.12,0.13,0.17,0.2l0.01,0c0,0,0.96,1.07,1.83,2.28c0.86,1.2,1.62,2.55,1.62,2.55l0,0
				c0.47,0.74,0.38,1.73-0.26,2.38c-0.06,0.06-0.13,0.12-0.19,0.17l0,0.01l-0.07,0.05c-0.03,0.02-0.05,0.04-0.08,0.05l-1.01,0.67
				c0,0,0,0,0,0c-0.1,0.07-0.19,0.14-0.27,0.23c-0.58,0.58-0.7,1.45-0.37,2.15c0,0,0,0,0,0c0.62,1.44,1.56,2.84,2.8,4.1
				c0.03,0.03,0.06,0.06,0.08,0.08c1.25,1.24,2.65,2.19,4.09,2.81c0,0,0,0,0,0c0.7,0.33,1.56,0.21,2.14-0.37
				c0.09-0.09,0.16-0.18,0.23-0.27c0,0,0,0,0,0l0.67-1.02c0.02-0.03,0.03-0.05,0.05-0.08l0.04-0.07l0.01,0
				c0.05-0.07,0.1-0.13,0.17-0.19c0.64-0.65,1.63-0.73,2.37-0.27l0,0c0,0,1.34,0.77,2.54,1.63c1.21,0.87,2.28,1.83,2.28,1.83l0,0.01
				c0.07,0.05,0.14,0.11,0.2,0.17C160.7,153.49,160.76,154.55,160.21,155.31L160.21,155.31z M155.21,138.56
				c-1.75-1.75-4.2-2.37-6.44-1.85l-0.37-1.61c2.78-0.64,5.81,0.12,7.97,2.29c0,0,0,0,0,0h0c2.16,2.17,2.92,5.21,2.28,8l-1.6-0.37
				C157.56,142.77,156.95,140.31,155.21,138.56z M152.86,140.91c-0.91-0.91-2.18-1.23-3.34-0.96l-0.37-1.61
				c1.7-0.39,3.55,0.07,4.88,1.4c0,0,0,0,0,0h0c1.32,1.33,1.79,3.19,1.39,4.89l-1.6-0.37C154.08,143.1,153.77,141.82,152.86,140.91z
				 M161.9,146.15l-1.61-0.38c0.77-3.33-0.14-6.98-2.73-9.57c-2.59-2.6-6.22-3.51-9.54-2.74l-0.37-1.62
				c3.86-0.9,8.08,0.16,11.09,3.18h0c0,0,0,0,0,0C161.74,138.04,162.79,142.28,161.9,146.15z"/>
		</g>
	</g>
</g>
</svg>
